<svg width="359" height="142" viewBox="0 0 359 142" fill="none" xmlns="http://www.w3.org/2000/svg">
<path d="M3.05909 35.9469C14.7657 63.9907 16.4053 95.2768 7.69422 124.391C4.33706 135.608 10.7322 142.597 22.1513 140.063C135.644 114.92 228.555 110.05 344.064 123.193C355.676 124.519 361.315 116.889 356.804 106.094C345.097 78.0507 343.458 46.7646 352.169 17.6509C355.526 6.43341 349.131 -0.555294 337.712 1.97795C224.219 27.1219 131.298 31.9916 15.7987 18.8487C4.18741 17.5224 -1.45223 25.1418 3.05909 35.9469Z" fill="#D97DFF"/>
<mask id="mask0_0_1" style="mask-type:alpha" maskUnits="userSpaceOnUse" x="1" y="1" width="358" height="140">
<path d="M3.04773 35.9557C14.7543 63.9994 16.394 95.2856 7.68287 124.399C4.3257 135.617 10.7208 142.605 22.1399 140.072C135.633 114.928 228.543 110.059 344.053 123.201C355.664 124.528 361.303 116.898 356.793 106.103C345.086 78.0595 343.446 46.7734 352.157 17.6596C355.515 6.4422 349.12 -0.546505 337.7 1.98674C224.207 27.1307 131.287 32.0004 15.7873 18.8575C4.17606 17.5312 -1.46358 25.1506 3.04773 35.9557Z" fill="#FF6D00"/>
</mask>
<g mask="url(#mask0_0_1)">
<g opacity="0.8" filter="url(#filter0_f_0_1)">
<path d="M-164.83 69.532H-157.758C-158.574 61.032 -165.578 55.32 -174.554 55.32C-184.278 55.32 -191.486 62.596 -191.486 73C-191.486 83.404 -184.278 90.68 -174.554 90.68C-165.306 90.68 -158.166 84.696 -157.622 75.72H-164.694C-165.374 81.364 -169.59 84.424 -174.554 84.424C-180.334 84.424 -184.686 79.868 -184.686 73C-184.686 66.132 -180.334 61.576 -174.554 61.576C-169.658 61.576 -165.51 64.364 -164.83 69.532ZM-140.864 90.68C-135.968 90.68 -131.616 88.776 -129.372 84.288V90H-122.708V66.2C-122.708 58.312 -129.508 55.32 -136.852 55.32C-144.332 55.32 -151.404 58.652 -151.404 67.424H-144.332C-144.332 63.004 -141.272 60.76 -136.852 60.76C-132.704 60.76 -129.508 62.596 -129.508 65.928C-129.508 73.68 -152.424 66.336 -152.424 81.024C-152.424 87.756 -146.916 90.68 -140.864 90.68ZM-145.488 80.616C-145.488 74.904 -135.152 76.332 -129.372 73.544V75.992C-129.372 81.908 -134.268 84.968 -139.504 84.968C-142.972 84.968 -145.488 83.54 -145.488 80.616ZM-90.5452 90L-81.0252 60.624V90H-74.2252V56H-85.5132L-93.9452 84.016L-102.377 56H-113.869V90H-107.613V60.624L-98.1612 90H-90.5452ZM-37.3269 78.576C-37.3269 71.844 -42.1549 67.22 -50.3829 67.22H-57.9309V56H-64.7309V90H-50.3149C-41.8149 90 -37.3269 85.308 -37.3269 78.576ZM-25.3589 90V56H-32.1589V90H-25.3589ZM-50.9269 72.932C-46.3029 72.932 -44.1269 74.768 -44.1269 78.508C-44.1269 82.18 -46.3029 84.288 -50.9269 84.288H-57.9309V72.932H-50.9269ZM4.13537 39C4.13537 42.808 2.02737 44.372 -0.692634 44.372C-3.20863 44.372 -5.45263 42.808 -5.45263 39H-10.8926C-10.8926 45.392 -6.74463 49.2 -0.692634 49.2C5.42737 49.2 9.57537 45.392 9.57537 39H4.13537ZM14.8114 90V56H6.17537L-9.39663 83.132V56H-15.9246V90H-7.28863L8.28337 62.868V90H14.8114ZM347.558 56H340.758V90H347.558V72.116L363.81 90H372.446L355.242 71.504L371.222 56H362.178L347.558 71.096V56ZM392.511 93.808L405.907 56H399.107L389.315 84.492L379.455 56H372.655L386.119 93.74C383.943 99.044 381.631 101.56 377.347 101.56C375.715 101.56 374.151 101.22 372.859 100.812V106.796C374.151 107.204 376.055 107.544 377.959 107.544C386.323 107.544 389.655 101.9 392.511 93.808ZM417.546 107V84.9C420.198 88.504 424.142 90.68 428.698 90.68C438.014 90.68 445.018 83.404 445.018 73C445.018 62.596 438.014 55.32 428.698 55.32C424.142 55.32 420.198 57.496 417.546 61.1V56H410.746V107H417.546ZM427.882 84.424C421.966 84.424 417.546 79.868 417.546 73C417.546 66.132 421.966 61.576 427.882 61.576C433.798 61.576 438.218 66.132 438.218 73C438.218 79.868 433.798 84.424 427.882 84.424ZM476.122 69.532H483.194C482.378 61.032 475.374 55.32 466.398 55.32C456.674 55.32 449.466 62.596 449.466 73C449.466 83.404 456.674 90.68 466.398 90.68C475.646 90.68 482.786 84.696 483.33 75.72H476.258C475.578 81.364 471.362 84.424 466.398 84.424C460.618 84.424 456.266 79.868 456.266 73C456.266 66.132 460.618 61.576 466.398 61.576C471.294 61.576 475.442 64.364 476.122 69.532ZM512.168 90V62.256H527.536V90H534.336V56H505.368V90H512.168ZM558.569 90.68C568.429 90.68 575.773 83.404 575.773 73C575.773 62.596 568.429 55.32 558.569 55.32C548.709 55.32 541.365 62.596 541.365 73C541.365 83.404 548.709 90.68 558.569 90.68ZM558.569 84.424C552.653 84.424 548.165 79.868 548.165 73C548.165 66.132 552.653 61.576 558.569 61.576C564.485 61.576 568.973 66.132 568.973 73C568.973 79.868 564.485 84.424 558.569 84.424ZM604.598 90V62.256H619.966V90H626.766V56H597.798V90H604.598ZM643.111 107V84.9C645.763 88.504 649.707 90.68 654.263 90.68C663.579 90.68 670.583 83.404 670.583 73C670.583 62.596 663.579 55.32 654.263 55.32C649.707 55.32 645.763 57.496 643.111 61.1V56H636.311V107H643.111ZM653.447 84.424C647.531 84.424 643.111 79.868 643.111 73C643.111 66.132 647.531 61.576 653.447 61.576C659.363 61.576 663.783 66.132 663.783 73C663.783 79.868 659.363 84.424 653.447 84.424ZM692.235 90.68C702.095 90.68 709.439 83.404 709.439 73C709.439 62.596 702.095 55.32 692.235 55.32C682.375 55.32 675.031 62.596 675.031 73C675.031 83.404 682.375 90.68 692.235 90.68ZM692.235 84.424C686.319 84.424 681.831 79.868 681.831 73C681.831 66.132 686.319 61.576 692.235 61.576C698.151 61.576 702.639 66.132 702.639 73C702.639 79.868 698.151 84.424 692.235 84.424ZM732.026 84.424C725.566 84.084 720.942 80.004 720.942 73C720.942 65.996 725.566 61.916 732.026 61.576V84.424ZM738.826 61.576C745.286 61.916 749.91 65.996 749.91 73C749.91 80.004 745.286 84.084 738.826 84.424V61.576ZM738.826 107V90.68C749.23 90.34 756.71 83.54 756.71 73C756.71 62.46 749.23 55.66 738.826 55.32V39H732.026V55.32C721.622 55.66 714.142 62.46 714.142 73C714.142 83.54 721.622 90.34 732.026 90.68V107H738.826ZM794.741 75.312C794.809 74.564 794.877 73.816 794.877 73C794.877 62.596 787.805 55.32 778.149 55.32C768.493 55.32 761.421 62.596 761.421 73C761.421 83.404 768.493 90.68 778.149 90.68C785.969 90.68 791.885 86.804 793.993 79.8H786.649C785.289 82.86 782.569 84.696 778.421 84.696C772.709 84.696 768.901 81.228 768.085 75.312H794.741ZM778.149 61.304C783.589 61.304 787.329 64.704 788.145 70.416H768.153C768.969 64.704 772.641 61.304 778.149 61.304ZM825.993 69.532H833.065C832.249 61.032 825.245 55.32 816.269 55.32C806.545 55.32 799.337 62.596 799.337 73C799.337 83.404 806.545 90.68 816.269 90.68C825.517 90.68 832.657 84.696 833.201 75.72H826.129C825.449 81.364 821.233 84.424 816.269 84.424C810.489 84.424 806.137 79.868 806.137 73C806.137 66.132 810.489 61.576 816.269 61.576C821.165 61.576 825.313 64.364 825.993 69.532ZM864.307 69.532H871.379C870.563 61.032 863.559 55.32 854.583 55.32C844.859 55.32 837.651 62.596 837.651 73C837.651 83.404 844.859 90.68 854.583 90.68C863.831 90.68 870.971 84.696 871.515 75.72H864.443C863.763 81.364 859.547 84.424 854.583 84.424C848.803 84.424 844.451 79.868 844.451 73C844.451 66.132 848.803 61.576 854.583 61.576C859.479 61.576 863.627 64.364 864.307 69.532ZM909.217 90V56H900.581L885.009 83.132V56H878.481V90H887.117L902.689 62.868V90H909.217ZM949.39 90V56H940.754L925.182 83.132V56H918.654V90H927.29L942.862 62.868V90H949.39Z" fill="white"/>
</g>
</g>
<defs>
<filter id="filter0_f_0_1" x="-197.486" y="33" width="1152.88" height="80.5439" filterUnits="userSpaceOnUse" color-interpolation-filters="sRGB">
<feFlood flood-opacity="0" result="BackgroundImageFix"/>
<feBlend mode="normal" in="SourceGraphic" in2="BackgroundImageFix" result="shape"/>
<feGaussianBlur stdDeviation="3" result="effect1_foregroundBlur_0_1"/>
</filter>
</defs>
</svg>