<svg width="139" height="90" viewBox="0 0 139 90" fill="none" xmlns="http://www.w3.org/2000/svg">
<g clip-path="url(#clip0_1_4563)">
<path d="M139 20.621C139 15.0972 134.484 10.6184 128.914 10.6184C123.344 10.6184 118.828 15.0972 118.828 20.621C118.828 23.4809 120.041 26.0515 121.98 27.871C113.935 41.9978 92.3891 36.5253 93.123 19.7579C97.6439 18.7689 101.026 14.7799 101.026 9.99793C101.026 4.47877 96.5148 0 90.9449 0C85.3749 0 80.8587 4.47877 80.8587 10.0026C80.8587 13.7256 82.9145 16.968 85.9582 18.6895C83.3896 25.6783 77.9796 31.7246 69.5024 31.7246C61.0345 31.7246 55.6292 25.6923 53.0606 18.7175C56.1325 17.0053 58.2072 13.7442 58.2072 10.0026C58.2072 4.47877 53.6957 0 48.1257 0C42.5557 0 38.0395 4.47877 38.0395 10.0026C38.0395 14.7613 41.3937 18.7315 45.877 19.7439C46.625 36.5253 25.0602 42.0025 17.0204 27.8664C18.9539 26.0422 20.1676 23.4762 20.1676 20.621C20.1676 15.0972 15.6514 10.6184 10.0815 10.6184C4.51149 10.6184 0 15.0972 0 20.621C0 26.1448 4.51619 30.6236 10.0862 30.6236L16.6394 71.4644C18.7845 84.8914 43.793 90 69.5071 90C95.2211 90 120.215 84.8914 122.361 71.4644L128.923 30.6236C134.489 30.6189 139 26.1402 139 20.621Z" fill="#00A665"/>
<path d="M43.9732 60.9558C43.9732 64.4758 42.5652 65.8838 40.4212 65.8838C38.3732 65.8838 37.1252 64.6678 37.1252 61.7238V61.4358H33.9252V61.9798C33.9252 66.4598 36.7412 68.8278 40.4212 68.8278C44.2612 68.8278 47.1732 66.2038 47.1732 61.2118V51.8038C47.1732 46.8118 44.2612 44.1878 40.4212 44.1878C36.5812 44.1878 33.6692 46.7158 33.6692 51.4838V52.1238C33.6692 56.9878 36.2932 59.4198 39.5892 59.4198C41.3812 59.4198 42.9492 58.7158 43.9732 56.9238V60.9558ZM43.9732 52.0918C43.9732 55.2278 42.5972 56.4758 40.4212 56.4758C38.1812 56.4758 36.8692 55.2278 36.8692 52.0918V51.5158C36.8692 48.4438 38.2452 47.1318 40.4212 47.1318C42.5972 47.1318 43.9732 48.4118 43.9732 51.5158V52.0918ZM53.2508 66.9718C53.2508 65.4678 52.2908 64.5718 51.0748 64.5718C49.8268 64.5718 48.9308 65.4998 48.9308 66.7158C48.9308 67.8678 49.7948 68.7958 51.0108 68.8278C50.6908 70.0118 50.0508 71.2278 49.1868 72.6678H51.0108C52.3548 70.6198 53.2508 68.5398 53.2508 66.9718ZM67.7321 50.8758C67.7321 46.4598 64.9801 44.1878 61.5881 44.1878C58.1321 44.1878 55.3801 46.4278 55.3801 50.9078V53.0198H58.5801V51.1638C58.5801 48.1558 59.7961 47.1318 61.5881 47.1318C63.2841 47.1318 64.5321 48.2198 64.5321 50.8758C64.5321 56.7318 55.1881 59.2918 55.1881 66.9078V68.5078H68.0521V65.5638H58.6441C59.4761 60.3478 67.7321 57.4998 67.7321 50.8758ZM71.8839 68.5078L79.8839 44.5078H77.5479L69.5479 68.5078H71.8839ZM84.3727 45.5958C84.3727 47.9958 83.5087 48.9878 81.4287 48.9878H80.6607V51.6758H84.3727V68.5078H87.5727V44.5078H84.3727V45.5958ZM97.7878 68.8278C102.012 68.8278 104.54 66.2358 104.54 60.9558V52.0598C104.54 46.8118 102.012 44.1878 97.7878 44.1878C93.5958 44.1878 91.0358 46.8118 91.0358 52.0598V60.9558C91.0358 66.2358 93.5958 68.8278 97.7878 68.8278ZM97.7878 65.8838C95.5478 65.8838 94.2358 64.5718 94.2358 60.9558V52.0598C94.2358 48.4758 95.5798 47.1318 97.7878 47.1318C99.9958 47.1318 101.34 48.4758 101.34 52.0598V60.9558C101.34 64.5718 99.9958 65.8838 97.7878 65.8838Z" fill="white"/>
</g>
<defs>
<clipPath id="clip0_1_4563">
<rect width="139" height="90" fill="white"/>
</clipPath>
</defs>
</svg>