<svg width="396" height="274" viewBox="0 0 396 274" fill="none" xmlns="http://www.w3.org/2000/svg">
<path d="M381.099 214.169C369.472 198.255 363.164 178.701 363.099 158.355C363.084 154.044 361.656 151.196 359.387 150.079C359.38 150.075 359.372 150.071 359.365 150.068C359.357 150.064 359.342 150.057 359.334 150.053C358.795 149.794 358.196 149.563 357.533 149.366C290.546 130.1 154.43 64.7327 97.5137 24.4962C96.957 24.0978 96.3863 23.7676 95.8432 23.5161C93.5563 22.4179 90.4259 23.0761 87.0258 25.7757C71.1055 38.4449 51.8968 45.7545 32.2104 46.6215C23.7556 46.9966 20.9914 52.7526 25.9845 59.5858C37.612 75.5001 43.9198 95.0543 43.9851 115.4C43.9963 119.738 45.4473 122.596 47.7342 123.695C48.2776 123.965 48.8881 124.193 49.5434 124.386C116.527 143.659 252.643 209.026 309.562 249.255C310.13 249.65 310.682 249.98 311.225 250.232C311.233 250.235 311.241 250.239 311.248 250.243C311.256 250.246 311.263 250.25 311.278 250.257C313.557 251.333 316.673 250.668 320.058 247.98C335.986 235.314 355.195 228.004 374.873 227.134C383.328 226.759 386.092 221.003 381.099 214.169Z" fill="#FF64B0"/>
<path d="M90.2627 78.595L95.9456 81.3241C98.5701 74.1788 95.1461 66.8858 87.9332 63.4219C80.1191 59.6694 71.519 62.7346 67.5041 71.0951C63.4891 79.4556 66.4734 88.0841 74.2875 91.8366C81.719 95.4055 89.7659 93.3522 93.6669 86.3492L87.984 83.6201C85.2595 87.8931 80.6907 88.725 76.7017 86.8094C72.057 84.5789 70.318 79.2383 72.9684 73.7193C75.6188 68.2002 80.8742 66.2186 85.5189 68.4491C89.4533 70.3385 91.7106 74.1797 90.2627 78.595ZM102.961 104.934L113.668 82.6395L122.52 86.8906L124.934 81.8634L101.765 70.737L99.3509 75.7642L108.203 80.0153L97.4966 102.31L102.961 104.934ZM122.66 115.067C126.594 116.956 130.826 117.105 134.361 114.365L132.157 118.955L137.512 121.527L146.697 102.401C149.741 96.0628 145.431 91.0343 139.53 88.2002C133.519 85.3136 126.55 85.262 123.165 92.311L128.848 95.0402C130.553 91.4883 133.878 90.866 137.43 92.5717C140.763 94.1724 142.623 96.8812 141.337 99.5587C138.346 105.788 122.765 91.0431 117.097 102.846C114.499 108.256 117.797 112.731 122.66 115.067ZM122.828 105.195C125.032 100.605 132.787 105.741 138.508 105.731L137.563 107.698C135.28 112.452 130.165 113.022 125.957 111.001C123.17 109.663 121.7 107.545 122.828 105.195ZM154.622 129.744L165.329 107.449L174.181 111.7L176.595 106.673L153.426 95.5464L151.012 100.574L159.864 104.825L149.158 127.119L154.622 129.744ZM191.681 147.54L204.801 120.218L197.862 116.886L174.878 132.679L185.348 110.876L180.103 108.357L166.982 135.679L173.921 139.012L196.905 123.218L186.435 145.021L191.681 147.54ZM225.526 143.553L231.209 146.282C233.833 139.137 230.409 131.844 223.196 128.38C215.382 124.627 206.782 127.692 202.767 136.053C198.752 144.413 201.737 153.042 209.551 156.794C216.982 160.363 225.029 158.31 228.93 151.307L223.247 148.578C220.523 152.851 215.954 153.683 211.965 151.767C207.32 149.537 205.581 144.196 208.232 138.677C210.882 133.158 216.137 131.176 220.782 133.407C224.717 135.296 226.974 139.138 225.526 143.553ZM238.224 169.892L248.931 147.597L257.783 151.848L260.197 146.821L237.028 135.695L234.614 140.722L243.466 144.973L232.76 167.268L238.224 169.892ZM275.283 187.689L288.403 160.367L281.464 157.034L258.48 172.828L268.95 151.025L263.705 148.506L250.584 175.827L257.523 179.16L280.507 163.367L270.037 185.169L275.283 187.689ZM300.416 166.136L294.951 163.511L281.831 190.833L287.295 193.457L294.197 179.086L300.355 199.729L307.295 203.062L300.607 181.56L319.432 175.268L312.164 171.778L294.59 178.266L300.416 166.136ZM317.002 208.396C320.936 210.285 325.168 210.435 328.703 207.694L326.499 212.284L331.854 214.856L341.039 195.731C344.083 189.392 339.773 184.364 333.872 181.53C327.861 178.643 320.892 178.591 317.507 185.64L323.19 188.37C324.895 184.818 328.22 184.195 331.772 185.901C335.105 187.502 336.965 190.211 335.679 192.888C332.688 199.117 317.107 184.373 311.439 196.176C308.841 201.585 312.139 206.061 317.002 208.396ZM317.17 198.524C319.374 193.934 327.129 199.071 332.85 199.061L331.905 201.028C329.622 205.782 324.507 206.351 320.299 204.331C317.512 202.992 316.041 200.874 317.17 198.524Z" fill="white"/>
</svg>