<svg width="382" height="152" viewBox="0 0 382 152" fill="none" xmlns="http://www.w3.org/2000/svg">
<path d="M3.68067 63.682C15.438 86.4056 18.972 112.544 13.6709 137.574C11.6278 147.218 17.4759 152.641 26.8828 149.728C120.379 120.801 271.424 100.38 369.253 103.439C379.088 103.751 383.293 96.9604 378.763 88.2136C367.006 65.49 363.472 39.3513 368.773 14.3214C370.816 4.67736 364.968 -0.745631 355.561 2.16769C262.065 31.0946 111.012 51.517 13.1909 48.4563C3.35649 48.1444 -0.850065 54.9268 3.68067 63.682Z" fill="#FF6D00"/>
<path d="M53.3565 78.2661C49.3317 78.8102 46.1075 81.2036 44.1951 84.7041L41.5556 65.1809L35.5484 65.993L41.6397 111.047L47.6468 110.235L47.0377 105.729C49.811 108.596 53.555 110.047 57.5798 109.503C65.8096 108.391 71.128 101.126 69.8853 91.9355C68.6427 82.7445 61.5863 77.1534 53.3565 78.2661ZM53.3829 83.8901C58.6091 83.1835 63.0579 86.6804 63.8782 92.7477C64.6985 98.8149 61.338 103.368 56.1117 104.074C50.8855 104.781 46.4367 101.284 45.6164 95.2167C44.7961 89.1494 48.1566 84.5967 53.3829 83.8901ZM74.9866 69.2859C77.3294 68.9691 78.7158 67.0078 78.4072 64.7251C78.0985 62.4423 76.2492 60.9796 73.9064 61.2964C71.6237 61.605 70.1691 63.5144 70.4777 65.7971C70.7863 68.0799 72.7039 69.5945 74.9866 69.2859ZM82.9363 105.463L78.8754 75.4276L72.8683 76.2398L76.9291 106.276L82.9363 105.463ZM101.637 88.9272L100.89 83.4006L86.3525 85.3661L87.0997 90.8927L101.637 88.9272ZM128.375 80.908L134.622 80.0634C132.886 72.6519 126.017 68.4424 118.087 69.5145C109.497 70.6759 103.998 77.9645 105.241 87.1554C106.484 96.3464 113.72 101.913 122.31 100.752C130.48 99.6472 136.073 93.5081 135.481 85.5137L129.234 86.3583C129.307 91.4255 125.948 94.6322 121.563 95.2251C116.457 95.9155 112.068 92.4105 111.248 86.3432C110.428 80.276 113.728 75.7314 118.834 75.0411C123.159 74.4563 127.157 76.4238 128.375 80.908ZM169.355 93.7796L165.294 63.7438L157.665 64.7753L147.149 90.6037L143.908 66.6352L138.141 67.4148L142.202 97.4506L149.831 96.4192L160.347 70.5907L163.588 94.5593L169.355 93.7796ZM195.434 71.8416L201.681 70.997C199.945 63.5855 193.076 59.376 185.146 60.4481C176.556 61.6095 171.057 68.898 172.3 78.089C173.543 87.2799 180.779 92.8467 189.369 91.6853C197.539 90.5807 203.132 84.4417 202.54 76.4472L196.293 77.2919C196.366 82.3591 193.007 85.5658 188.622 86.1587C183.516 86.8491 179.127 83.3441 178.307 77.2768C177.487 71.2096 180.787 66.665 185.893 65.9747C190.219 65.3899 194.216 67.3574 195.434 71.8416ZM220.521 86.8618L217.208 62.3526L226.939 61.0369L226.192 55.5103L200.722 58.9539L201.469 64.4805L211.201 63.1648L214.514 87.674L220.521 86.8618ZM259.156 68.4258C259.127 67.7569 259.098 67.088 259 66.3671C257.758 57.1761 250.641 51.5931 242.111 52.7464C233.581 53.8997 228.202 61.172 229.445 70.363C230.688 79.5539 237.804 85.1369 246.334 83.9837C253.242 83.0497 258.006 78.919 259.031 72.4798L252.544 73.357C251.708 76.2226 249.524 78.1694 245.86 78.6649C240.814 79.3471 237.036 76.7383 235.608 71.6095L259.156 68.4258ZM242.826 58.0327C247.631 57.383 251.341 59.9399 252.744 64.8884L235.083 67.2762C235.122 62.1327 237.96 58.6906 242.826 58.0327ZM286.659 77.92L291.56 50.8321L295.069 76.783L301.076 75.9708L297.015 45.935L287.043 47.2832L282.941 73.0398L272.145 49.2974L261.993 50.67L266.054 80.7058L271.581 79.9586L268.072 54.0077L279.931 78.8297L286.659 77.92ZM331.169 61.6257C330.365 55.6787 325.548 52.1704 318.279 53.1532L311.611 54.0547L310.271 44.1429L304.264 44.955L308.325 74.9908L321.06 73.269C328.569 72.2538 331.973 67.5728 331.169 61.6257ZM343.106 70.2883L339.045 40.2526L333.038 41.0647L337.099 71.1005L343.106 70.2883ZM318.481 58.2641C322.566 57.7119 324.707 59.0739 325.154 62.3778C325.592 65.6217 323.922 67.7438 319.837 68.2961L313.65 69.1326L312.293 59.1007L318.481 58.2641Z" fill="white"/>
</svg>