<svg width="200" height="224" viewBox="0 0 200 224" fill="none" xmlns="http://www.w3.org/2000/svg">
<path d="M3.00491 163.578C0.946172 166.304 2.60394 170.237 5.99317 170.668L40.7193 175.076C46.9622 175.866 52.3331 179.922 54.8023 185.71L68.9554 218.875C70.2965 222.017 74.5338 222.535 76.5927 219.809L180.301 82.4634C183.402 78.357 184.061 72.8931 182.031 68.1465L167.646 34.4002C165.621 29.6468 161.212 26.3177 156.085 25.6708L119.696 21.0669C114.563 20.4149 109.495 22.5497 106.394 26.6561L3.00491 163.578Z" fill="#40E687"/>
<path d="M80.6861 141.679C80.1905 141.228 79.6949 140.778 79.1144 140.34C71.7129 134.751 62.7377 135.874 57.5506 142.743C52.3636 149.612 53.7409 158.552 61.1424 164.141C68.5439 169.73 77.5191 168.607 82.7061 161.738C86.9069 156.175 87.3274 149.884 83.4771 144.622L79.532 149.846C80.9784 152.458 80.8234 155.379 78.5952 158.33C75.5268 162.393 71.014 163.24 66.367 160.642L80.6861 141.679ZM61.8077 145.958C64.73 142.087 69.1579 141.253 73.6598 143.741L62.9204 157.964C59.2952 154.315 58.8489 149.876 61.8077 145.958ZM95.98 143.153L91.9253 129.913L106.135 129.704L110.409 124.044L90.8649 124.175L85.8555 106.264L81.5817 111.924L85.203 124.229L72.1573 124.405L67.8835 130.065L86.3364 129.87L91.7062 148.813L95.98 143.153ZM110.276 93.9413L114.075 88.9102C107.59 84.9247 99.7635 86.839 94.9417 93.2246C89.7182 100.142 91.0224 109.179 98.4239 114.768C105.825 120.357 114.874 119.137 120.097 112.219C125.065 105.64 124.644 97.3463 118.55 92.1376L114.751 97.1687C118.401 100.684 118.313 105.327 115.647 108.859C112.542 112.971 106.963 113.619 102.077 109.93C97.1908 106.241 96.2874 100.697 99.3923 96.5853C102.022 93.1022 106.234 91.6489 110.276 93.9413ZM137.857 65.9653C137.361 65.5151 136.866 65.0649 136.285 64.6266C128.884 59.0377 119.908 60.1603 114.721 67.0297C109.534 73.8991 110.912 82.8387 118.313 88.4276C125.715 94.0164 134.69 92.8938 139.877 86.0245C144.078 80.4612 144.498 74.1704 140.648 68.9083L136.703 74.1329C138.149 76.7442 137.994 79.6655 135.766 82.6165C132.698 86.68 128.185 87.5261 123.538 84.9287L137.857 65.9653ZM118.979 70.2442C121.901 66.3741 126.329 65.5399 130.831 68.0277L120.091 82.2503C116.466 78.6014 116.02 74.1626 118.979 70.2442ZM155.087 64.8755L118.805 37.4792L115.152 42.3168L151.434 69.7131L155.087 64.8755Z" fill="white"/>
</svg>