<svg width="399" height="404" viewBox="0 0 399 404" fill="none" xmlns="http://www.w3.org/2000/svg">
<path d="M88.9388 380.244L375.358 88.8912C378.966 85.2217 380.334 79.8955 378.936 74.9136L368.933 39.1741C367.61 34.4551 363.87 30.7784 359.129 29.5363L323.224 20.1447C318.219 18.8442 312.923 20.2974 309.316 23.9669L22.8961 315.32C19.2888 318.989 17.9203 324.316 19.318 329.297L29.2089 364.619C30.6006 369.595 34.5402 373.468 39.5392 374.774L75.0302 384.054C80.0233 385.367 85.3314 383.914 88.9388 380.244Z" fill="#AD61FF"/>
<path d="M71.1017 354.573L81.9807 343.507C86.4002 339.011 87.045 334.204 82.8952 330.125C80.1718 327.448 76.9553 327.261 73.8399 328.873C74.8892 326.25 74.5243 323.681 72.2332 321.429C68.4724 317.731 63.9364 318.627 60.0267 322.604L49.4877 333.325L71.1017 354.573ZM62.0797 327.088C64.7144 324.408 66.6839 324.134 68.6291 326.046C70.4447 327.831 70.334 329.932 67.6993 332.612L62.4723 337.929L56.8527 332.405L62.0797 327.088ZM71.8345 334.977C74.2143 332.557 76.5274 332.365 78.5159 334.32C80.5044 336.275 80.3527 338.591 77.9729 341.012L71.896 347.193L65.7576 341.159L71.8345 334.977ZM103.365 303.077C102.932 302.566 102.499 302.055 101.98 301.545C95.3665 295.043 86.3216 294.992 80.2871 301.13C74.2527 307.269 74.4585 316.311 81.0724 322.813C87.6863 329.315 96.7312 329.367 102.766 323.228C107.653 318.257 108.886 312.074 105.751 306.357L101.161 311.025C102.257 313.802 101.724 316.679 99.1316 319.316C95.5619 322.947 90.9775 323.2 86.7067 320.022L103.365 303.077ZM84.0912 304.87C87.4909 301.412 91.9895 301.159 96.1306 304.21L83.6368 316.919C80.5156 312.831 80.649 308.371 84.0912 304.87ZM105.129 276.552C101.475 280.27 100.525 284.521 101.628 288.155L100.806 287.348C95.23 281.866 94.9026 278.654 98.8437 273.348L102.784 267.956C106.726 262.736 107.261 260.116 103.758 256.503L99.5083 260.826C100.071 261.464 100.336 262.319 99.0643 264.044L94.6572 269.997C89.107 277.632 88.5993 283.423 97.0719 291.752L104.723 299.274C111.164 305.606 120.378 305.313 126.455 299.131C132.574 292.906 132.667 283.733 126.14 277.316C119.612 270.899 110.484 271.105 105.129 276.552ZM122.478 295.222C118.696 299.069 113.123 299.031 108.886 294.866C104.693 290.744 104.517 285.13 108.299 281.283C112.124 277.392 117.784 277.601 121.89 281.638C126.04 285.718 126.302 291.331 122.478 295.222ZM139.845 264.845L135.868 260.935L125.584 271.396L129.561 275.306L139.845 264.845ZM160.538 264.461C163.598 261.348 165.107 257.392 163.656 253.161L167.288 256.73L171.452 252.494L156.322 237.62C151.308 232.691 145.156 235.144 140.567 239.812C135.892 244.568 133.591 251.146 139.167 256.628L143.587 252.132C140.777 249.37 141.263 246.022 144.025 243.212C146.617 240.575 149.782 239.691 151.9 241.773C156.828 246.618 137.838 256.596 147.175 265.775C151.455 269.982 156.756 268.308 160.538 264.461ZM151.251 261.111C147.619 257.541 154.987 251.863 156.826 246.446L158.383 247.976C162.143 251.673 161.029 256.698 157.757 260.027C155.589 262.231 153.109 262.938 151.251 261.111ZM180.42 243.372L171.472 234.575L181.671 224.2L190.619 232.997L194.869 228.674L173.255 207.426L169.005 211.749L177.737 220.333L167.538 230.708L158.806 222.124L154.556 226.447L176.17 247.695L180.42 243.372ZM206.525 217.682C209.584 214.57 211.094 210.613 209.643 206.382L213.274 209.952L217.439 205.715L202.309 190.842C197.294 185.912 191.143 188.365 186.553 193.034C181.879 197.789 179.577 204.367 185.154 209.849L189.573 205.353C186.763 202.591 187.249 199.243 190.012 196.434C192.604 193.797 195.768 192.912 197.886 194.995C202.814 199.839 183.825 209.817 193.162 218.996C197.441 223.204 202.742 221.529 206.525 217.682ZM197.237 214.332C193.606 210.763 200.973 205.084 202.813 199.668L204.369 201.198C208.13 204.895 207.015 209.919 203.743 213.248C201.576 215.453 199.096 216.16 197.237 214.332ZM239.495 183.279L217.881 162.031L202.158 178.025C211.842 187.63 215.262 191.587 216.611 193.933C217.828 195.981 217.585 197.611 216.438 198.779L216.098 199.124L220.075 203.034L220.839 202.256C224.239 198.798 224.682 195.493 220.171 189.274C218.177 186.633 214.975 183.06 210.002 178.001L217.609 170.263L235.246 187.602L239.495 183.279ZM263.798 158.557L242.184 137.31L236.787 142.799L244.303 169.655L227.056 152.699L222.976 156.849L244.59 178.096L249.987 172.607L242.47 145.751L259.718 162.707L263.798 158.557ZM277.645 144.472L260.008 127.134L266.892 120.131L262.915 116.222L244.897 134.55L248.874 138.46L255.758 131.457L273.395 148.795L277.645 144.472ZM306.465 115.156L284.851 93.908L279.454 99.398L286.97 126.253L269.722 109.297L265.642 113.447L287.256 134.695L292.653 129.205L285.137 102.35L302.385 119.306L306.465 115.156ZM294.193 84.4052L289.943 88.728L311.557 109.976L315.807 105.653L304.438 94.4767L325.963 95.3217L331.36 89.8317L308.851 89.2095L308.981 69.3619L303.329 75.1112L303.789 93.8393L294.193 84.4052ZM339.546 82.3698C342.605 79.2574 344.115 75.3009 342.664 71.0697L346.295 74.6394L350.46 70.403L335.33 55.5294C330.316 50.5999 324.164 53.0529 319.574 57.7215C314.9 62.4766 312.598 69.0546 318.175 74.5365L322.594 70.0408C319.785 67.2786 320.27 63.931 323.033 61.1212C325.625 58.4843 328.789 57.5999 330.908 59.6822C335.835 64.5268 316.846 74.505 326.183 83.6842C330.463 87.8912 335.764 86.2171 339.546 82.3698ZM330.258 79.0199C326.627 75.4503 333.994 69.772 335.834 64.3553L337.39 65.8852C341.151 69.5823 340.037 74.6071 336.764 77.9356C334.597 80.1402 332.117 80.8473 330.258 79.0199Z" fill="white"/>
</svg>