<svg width="264" height="172" viewBox="0 0 264 172" fill="none" xmlns="http://www.w3.org/2000/svg">
<path d="M188.797 155.462L43.8073 101.898C20.1684 93.1645 8.08593 66.8987 16.8254 43.2424L16.9741 42.8401C25.7136 19.1838 51.9704 7.08197 75.6093 15.815L220.599 69.3794C244.238 78.1125 256.32 104.378 247.58 128.035L247.432 128.437C238.692 152.093 212.435 164.195 188.797 155.462Z" fill="#00C1FF"/>
<path d="M43.0738 85.9334L49.901 67.4533C51.0053 71.2862 53.631 74.3242 57.4408 75.7316C65.2308 78.6096 73.3353 74.6891 76.5494 65.9892C79.7634 57.2893 76.1544 49.0414 68.3643 46.1635C64.5546 44.756 60.5844 45.3572 57.2534 47.5516L58.8289 43.287L53.1427 41.1863L37.3876 83.8327L43.0738 85.9334ZM58.6911 70.2483C53.7441 68.4207 51.4555 63.2455 53.5772 57.5024C55.6989 51.7594 60.8024 49.3151 65.7494 51.1427C70.6963 52.9703 72.9849 58.1455 70.8632 63.8885C68.7415 69.6316 63.638 72.0759 58.6911 70.2483ZM87.6038 89.8476L110.485 62.3708L104.799 60.2701L87.8093 81.0702L88.3662 54.1991L82.68 52.0984L82.2798 87.8161C78.8217 91.5791 76.1112 92.9688 72.5289 91.6454C71.1642 91.1412 69.9614 90.3737 69.0071 89.6334L67.1585 94.6373C68.1128 95.3776 69.5999 96.2501 71.192 96.8383C78.186 99.4221 82.7158 95.7319 87.6038 89.8476ZM113.821 84.8638L118.883 71.16L127.071 74.185L128.92 69.1812L120.732 66.1562L123.841 57.7407L118.155 55.64L115.046 64.0555L110.383 62.333L108.534 67.3368L113.197 69.0594L108.008 83.1042C105.151 90.8374 108.313 94.5255 113.771 96.5422C115.42 97.1514 117.309 97.4614 118.459 97.4984L120.328 92.4377C119.235 92.4217 118.035 92.1722 116.784 91.71C113.486 90.4916 112.518 88.3892 113.821 84.8638ZM148.708 91.1611L142.974 106.684L148.66 108.785L154.815 92.1245C157.903 83.7658 154.767 78.0839 148.569 75.7942C144.817 74.4077 141.038 75.0151 138.057 77.6619L144.968 58.9543L139.282 56.8536L123.527 99.5L129.213 101.601L134.948 86.0774C137.027 80.4481 140.693 78.5713 144.958 80.1468C149.223 81.7223 150.788 85.5318 148.708 91.1611ZM167.281 116.311C175.526 119.357 183.915 115.541 187.129 106.841C190.343 98.1416 186.45 89.7886 178.205 86.7426C169.96 83.6966 161.571 87.5121 158.357 96.212C155.143 104.912 159.036 113.265 167.281 116.311ZM169.214 111.079C164.267 109.252 161.922 104.056 164.043 98.3127C166.165 92.5696 171.325 90.1463 176.272 91.9739C181.219 93.8015 183.565 98.9977 181.443 104.741C179.321 110.484 174.161 112.907 169.214 111.079ZM211.796 114.468L206.061 129.991L211.747 132.092L217.902 115.431C220.99 107.073 217.855 101.391 211.657 99.101C207.904 97.7145 204.125 98.3218 201.144 100.969L202.804 96.4765L197.117 94.3759L186.614 122.807L192.3 124.907L198.035 109.384C200.115 103.755 203.781 101.878 208.045 103.454C212.31 105.029 213.875 108.839 211.796 114.468Z" fill="white"/>
</svg>