<svg width="215" height="223" viewBox="0 0 215 223" fill="none" xmlns="http://www.w3.org/2000/svg">
<path d="M180.261 132.193C178.002 129.278 175.433 126.765 172.643 124.65C165.777 119.448 161.223 111.767 159.847 103.261C158.295 93.6699 154.091 84.4023 147.155 76.6233C140.219 68.8444 131.487 63.6034 122.148 60.9671C113.849 58.6218 106.743 53.2272 102.359 45.812C100.577 42.799 98.3728 39.9713 95.7362 37.382C81.3535 23.3058 58.4406 21.9448 42.4428 34.2239C23.3757 48.8562 21.0124 76.262 36.6716 93.8243C38.47 95.8413 40.4245 97.6402 42.5056 99.2134C49.366 104.409 53.8957 112.089 55.273 120.584C56.8249 130.174 61.035 139.436 67.971 147.215C74.9069 154.994 83.6394 160.235 92.9782 162.871C101.266 165.204 108.378 170.581 112.751 177.996C114.076 180.243 115.64 182.39 117.438 184.407C133.103 201.976 160.594 202.751 177.308 185.48C191.345 171.002 192.609 148.083 180.261 132.193Z" fill="#FFC400"/>
<path d="M91.1752 73.3499C86.6507 77.3841 86.2 82.2527 86.8167 87.2254L87.5153 93.0186C87.9891 96.738 87.7123 100.071 84.9072 102.572C82.1925 104.993 78.9903 104.68 76.4891 101.875C74.0283 99.1154 74.4054 95.5305 77.6178 92.6663L79.8348 90.6895L75.8006 86.165L73.2669 88.4242C67.4303 93.6282 67.8487 100.565 72.3266 105.587C76.8045 110.609 83.4215 112.018 89.4843 106.613C93.873 102.699 94.2332 97.9115 93.6568 92.984L93.0133 86.9794C92.5296 83.4311 92.5399 80.2546 95.2093 77.8744C97.924 75.4539 100.824 75.7918 102.962 78.1898C105.221 80.7235 105.095 83.6787 101.611 86.785L99.6657 88.5197L103.7 93.0442L105.781 91.1884C111.889 85.7423 111.441 79.3195 107.125 74.4783C102.929 69.7728 97.1022 68.0651 91.1752 73.3499ZM91.5928 127.194C93.6502 129.502 96.3656 130.817 99.2134 129.821L98.3386 133.849L102.252 138.238L103.706 131.581C106.687 132.009 109.821 130.514 112.898 127.771L124.571 117.363C132.308 110.464 132.805 103.28 127.238 97.0362C121.671 90.7924 114.477 90.4661 106.74 97.3646L95.0668 107.773C87.3299 114.671 86.8325 121.856 91.5928 127.194ZM96.5622 124.388C93.4962 120.949 93.6716 117.138 99.1009 112.297L110.774 101.889C116.204 97.0481 120.05 97.3543 123.076 100.748C126.142 104.186 125.966 107.997 120.537 112.838L108.864 123.247C107.235 124.699 105.761 125.688 104.398 126.254L106.068 118.836L102.034 114.311L99.5708 126.578C98.4778 126.172 97.49 125.429 96.5622 124.388ZM124.267 154.549L114.423 143.509L144.195 116.964L140.16 112.44L106.227 142.696L120.104 158.26L124.267 154.549Z" fill="black"/>
</svg>