<svg width="121" height="101" viewBox="0 0 121 101" fill="none" xmlns="http://www.w3.org/2000/svg">
<rect x="33.195" y="4.11963" width="95" height="52" rx="26" transform="rotate(31 33.195 4.11963)" fill="#FF9E00"/>
<mask id="mask0_0_1" style="mask-type:alpha" maskUnits="userSpaceOnUse" x="16" y="13" width="89" height="75">
<rect x="33.1935" y="4.11914" width="95" height="52" rx="26" transform="rotate(31 33.1935 4.11914)" fill="#FF9E00"/>
</mask>
<g mask="url(#mask0_0_1)">
<g filter="url(#filter0_f_0_1)">
<rect x="-224.148" y="-96.7634" width="339" height="80" rx="40" transform="rotate(11 -224.148 -96.7634)" fill="#FF6D00"/>
</g>
<g filter="url(#filter1_f_0_1)">
<path d="M-198.9 -57.2453L-197.666 -63.5945L-190.863 -62.2722L-192.097 -55.923L-188.21 -55.1674L-185.062 -71.3643L-188.949 -72.1199L-190.17 -65.8355L-196.973 -67.1578L-195.751 -73.4422L-199.639 -74.1978L-202.787 -58.0009L-198.9 -57.2453ZM-179.11 -53.0625C-176.875 -52.628 -174.839 -53.0727 -173.431 -54.7824L-173.897 -52.3853L-170.074 -51.6423L-167.883 -62.9153C-167.146 -66.7053 -170.167 -68.8053 -173.731 -69.4979C-177.359 -70.2032 -181.107 -69.2509 -181.926 -65.0398L-177.877 -64.2527C-177.524 -66.0667 -176.11 -66.7669 -174.329 -66.4205C-172.644 -66.0931 -171.493 -65.0962 -171.739 -63.8328C-172.369 -60.5935 -182.292 -65.7497 -183.646 -58.7851C-184.282 -55.5133 -181.896 -53.604 -179.11 -53.0625ZM-179.611 -58.2697C-179.208 -60.3429 -175.254 -59.2382 -172.455 -59.8034L-172.6 -59.0584C-173.078 -56.5965 -175.403 -55.7037 -177.671 -56.1445C-178.967 -56.3963 -179.831 -57.1359 -179.611 -58.2697ZM-148.161 -71.2848C-148.658 -68.7257 -149.929 -67.8969 -152.488 -68.3944L-153.395 -68.5707L-154.025 -65.3313L-149.489 -64.4498L-152.638 -48.2529L-148.751 -47.4973L-144.028 -71.7926L-147.915 -72.5482L-148.161 -71.2848ZM-121.945 -51.8344C-122.418 -51.8253 -123.13 -51.7956 -124.749 -52.1104C-127.179 -52.5827 -128.298 -53.7416 -127.788 -56.3655L-127.064 -60.0907L-130.951 -60.8463L-131.676 -57.1211C-132.645 -52.1324 -130.819 -49.5924 -125.766 -48.6101C-124.729 -48.4086 -123.512 -48.2728 -122.632 -48.3034L-123.734 -42.6345L-119.847 -41.8789L-116.698 -58.0758L-120.585 -58.8314L-121.945 -51.8344ZM-110.748 -39.7743C-108.513 -39.3398 -106.477 -39.7844 -105.069 -41.4942L-105.535 -39.097L-101.712 -38.354L-99.5211 -49.627C-98.7844 -53.4171 -101.805 -55.5171 -105.369 -56.2097C-108.997 -56.9149 -112.745 -55.9627 -113.564 -51.7515L-109.515 -50.9644C-109.162 -52.7785 -107.748 -53.4786 -105.967 -53.1323C-104.282 -52.8049 -103.131 -51.808 -103.377 -50.5446C-104.007 -47.3052 -113.93 -52.4615 -115.284 -45.4968C-115.92 -42.225 -113.534 -40.3158 -110.748 -39.7743ZM-111.249 -44.9815C-110.846 -47.0547 -106.892 -45.9499 -104.093 -46.5152L-104.238 -45.7701C-104.716 -43.3082 -107.041 -42.4155 -109.309 -42.8562C-110.605 -43.1081 -111.469 -43.8477 -111.249 -44.9815ZM-84.5983 -45.1463L-80.5167 -44.3529C-80.1184 -48.4777 -82.926 -51.8473 -87.2992 -52.6974C-91.9638 -53.6041 -96.1037 -50.8117 -97.0671 -45.8555C-98.0305 -40.8993 -95.2381 -36.7594 -90.5734 -35.8527C-86.0707 -34.9774 -82.0829 -37.1606 -81.0573 -41.3988L-85.0742 -42.1796C-85.8578 -39.8778 -87.84 -39.0193 -89.8808 -39.416C-92.3103 -39.8882 -93.7466 -42.1845 -93.1799 -45.0999C-92.6132 -48.0153 -90.4213 -49.6063 -87.9918 -49.1341C-85.951 -48.7374 -84.4419 -47.3347 -84.5983 -45.1463ZM-64.5393 -31.1283L-62.0836 -43.7619L-57.2246 -42.8174L-56.5319 -46.3807L-70.1373 -49.0253L-70.8299 -45.462L-65.9709 -44.5175L-68.4266 -31.8839L-64.5393 -31.1283ZM-40.7295 -33.5599C-40.6152 -33.9747 -40.501 -34.3895 -40.4128 -34.843C-39.4494 -39.7992 -42.177 -43.9265 -46.8093 -44.827C-51.4416 -45.7274 -55.5167 -42.9224 -56.4801 -37.9662C-57.4435 -33.0099 -54.7159 -28.8827 -50.0836 -27.9822C-46.2611 -27.2392 -43.0903 -28.5055 -41.4636 -31.6855L-45.6748 -32.5041C-46.4135 -31.471 -47.5436 -31.0184 -49.2605 -31.3521C-51.6576 -31.818 -52.948 -33.4808 -52.9095 -35.9274L-40.7295 -33.5599ZM-47.4705 -41.4256C-45.2029 -40.9848 -43.9647 -39.3995 -43.9843 -37.05L-52.3419 -38.6746C-51.48 -40.8603 -49.738 -41.8664 -47.4705 -41.4256ZM-31.5089 -24.3717C-26.7794 -23.4524 -22.5747 -26.2321 -21.6113 -31.1884C-20.6479 -36.1446 -23.5051 -40.2971 -28.2346 -41.2164C-32.9641 -42.1357 -37.1687 -39.3559 -38.1321 -34.3997C-39.0955 -29.4435 -36.2383 -25.291 -31.5089 -24.3717ZM-30.8162 -27.935C-33.3105 -28.4198 -34.8116 -30.7286 -34.2449 -33.6441C-33.6782 -36.5595 -31.4215 -38.1379 -28.9272 -37.6531C-26.4329 -37.1682 -24.9319 -34.8594 -25.4986 -31.944C-26.0653 -29.0285 -28.3219 -27.4501 -30.8162 -27.935ZM-17.4686 -13.5743L-15.4977 -23.7135C-14.5564 -21.9841 -13.0419 -20.7821 -11.0983 -20.4043C-6.66036 -19.5416 -2.65006 -22.3592 -1.68667 -27.3154C-0.723276 -32.2716 -3.38608 -36.3863 -7.82402 -37.249C-9.76764 -37.6268 -11.6221 -37.0796 -13.1427 -35.8287L-12.746 -37.8695L-16.6333 -38.6251L-21.3558 -14.3299L-17.4686 -13.5743ZM-10.8916 -24.062C-13.3859 -24.5469 -14.8869 -26.8557 -14.3202 -29.7711C-13.7535 -32.6866 -11.4969 -34.265 -9.00256 -33.7801C-6.50824 -33.2953 -5.00721 -30.9864 -5.57391 -28.071C-6.14062 -25.1556 -8.39725 -23.5772 -10.8916 -24.062ZM15.2112 -15.6264L18.3595 -31.8232L13.3709 -32.7929L4.66674 -21.9118L7.02171 -34.0271L3.29643 -34.7512L0.148084 -18.5544L5.13671 -17.5847L13.8345 -28.4334L11.4859 -16.3505L15.2112 -15.6264ZM34.8245 -11.8139L37.9729 -28.0108L32.9842 -28.9805L24.2801 -18.0994L26.6351 -30.2146L22.9098 -30.9388L19.7615 -14.7419L24.7501 -13.7722L33.4479 -24.6209L31.0992 -12.5381L34.8245 -11.8139ZM76.8267 -11.5497L77.3305 -14.1412L48.1761 -19.8082L47.6724 -17.2167L76.8267 -11.5497ZM-191.512 -35.0173L-192.205 -31.454L-184.43 -29.9428L-185.186 -26.0556L-181.299 -25.3L-180.543 -29.1872L-177.628 -28.6205L-176.935 -32.1838L-179.85 -32.7505L-176.576 -49.5952L-182.407 -50.7286L-191.512 -35.0173ZM-188.337 -34.4002L-181.124 -46.9495L-183.738 -33.5061L-188.337 -34.4002ZM-155.854 -29.9015C-156.326 -29.8924 -157.038 -29.8627 -158.658 -30.1775C-161.087 -30.6498 -162.207 -31.8087 -161.697 -34.4326L-160.973 -38.1578L-164.86 -38.9134L-165.584 -35.1882C-166.554 -30.1995 -164.728 -27.6595 -159.674 -26.6772C-158.638 -26.4757 -157.42 -26.3399 -156.54 -26.3705L-157.642 -20.7016L-153.755 -19.946L-150.607 -36.1429L-154.494 -36.8985L-155.854 -29.9015ZM-144.657 -17.8414C-142.422 -17.4069 -140.386 -17.8515 -138.977 -19.5613L-139.443 -17.1641L-135.621 -16.4211L-133.43 -27.6941C-132.693 -31.4842 -135.714 -33.5842 -139.277 -34.2768C-142.905 -34.982 -146.654 -34.0298 -147.472 -29.8186L-143.423 -29.0315C-143.07 -30.8456 -141.657 -31.5457 -139.875 -31.1994C-138.191 -30.872 -137.04 -29.8751 -137.285 -28.6117C-137.915 -25.3723 -147.839 -30.5285 -149.192 -23.5639C-149.828 -20.2921 -147.443 -18.3829 -144.657 -17.8414ZM-145.158 -23.0486C-144.755 -25.1218 -140.801 -24.017 -138.001 -24.5823L-138.146 -23.8372C-138.625 -21.3753 -140.95 -20.4826 -143.217 -20.9233C-144.513 -21.1752 -145.378 -21.9148 -145.158 -23.0486ZM-118.507 -23.2134L-114.425 -22.42C-114.027 -26.5448 -116.835 -29.9144 -121.208 -30.7645C-125.872 -31.6712 -130.012 -28.8788 -130.976 -23.9226C-131.939 -18.9664 -129.147 -14.8265 -124.482 -13.9198C-119.979 -13.0445 -115.991 -15.2277 -114.966 -19.4659L-118.983 -20.2467C-119.766 -17.9449 -121.749 -17.0864 -123.789 -17.4831C-126.219 -17.9553 -127.655 -20.2516 -127.088 -23.167C-126.522 -26.0824 -124.33 -27.6734 -121.9 -27.2012C-119.86 -26.8045 -118.35 -25.4018 -118.507 -23.2134ZM-108.309 -10.776C-106.074 -10.3416 -104.038 -10.7862 -102.629 -12.4959L-103.095 -10.0988L-99.2729 -9.35578L-97.0817 -20.6288C-96.345 -24.4189 -99.3658 -26.5188 -102.929 -27.2115C-106.557 -27.9167 -110.306 -26.9645 -111.124 -22.7533L-107.075 -21.9662C-106.722 -23.7802 -105.309 -24.4804 -103.527 -24.1341C-101.843 -23.8066 -100.692 -22.8097 -100.937 -21.5464C-101.567 -18.307 -111.491 -23.4632 -112.844 -16.4986C-113.48 -13.2268 -111.095 -11.3175 -108.309 -10.776ZM-108.81 -15.9832C-108.407 -18.0564 -104.453 -16.9517 -101.653 -17.5169L-101.798 -16.7719C-102.277 -14.31 -104.602 -13.4172 -106.869 -13.858C-108.165 -14.1099 -109.03 -14.8494 -108.81 -15.9832ZM-83.7151 -6.33165L-81.2594 -18.9652L-74.9426 -17.7373L-77.3983 -5.10379L-73.5111 -4.34819L-70.3627 -20.545L-84.454 -23.2841L-87.6023 -7.08725L-83.7151 -6.33165ZM-66.6566 5.38861L-64.6857 -4.75062C-63.7444 -3.02124 -62.2299 -1.81918 -60.2863 -1.44138C-55.8484 -0.578729 -51.8381 -3.39629 -50.8747 -8.35253C-49.9113 -13.3088 -52.5741 -17.4235 -57.012 -18.2861C-58.9557 -18.6639 -60.8101 -18.1167 -62.3307 -16.8659L-61.9341 -18.9067L-65.8213 -19.6623L-70.5438 4.633L-66.6566 5.38861ZM-60.0796 -5.09913C-62.5739 -5.58398 -64.0749 -7.89281 -63.5082 -10.8082C-62.9415 -13.7237 -60.6849 -15.3021 -58.1906 -14.8172C-55.6963 -14.3324 -54.1952 -12.0236 -54.7619 -9.10813C-55.3286 -6.1927 -57.5853 -4.61429 -60.0796 -5.09913ZM-44.4706 1.63289C-42.2354 2.06736 -40.1992 1.62272 -38.7911 -0.0870086L-39.257 2.31012L-35.4346 3.05313L-33.2433 -8.21987C-32.5066 -12.0099 -35.5274 -14.1099 -39.0907 -14.8025C-42.7188 -15.5078 -46.4674 -14.5555 -47.286 -10.3444L-43.2368 -9.55728C-42.8841 -11.3713 -41.4706 -12.0715 -39.6889 -11.7251C-38.0044 -11.3977 -36.8535 -10.4008 -37.0991 -9.13744C-37.7288 -5.89807 -47.6522 -11.0543 -49.006 -4.08965C-49.642 -0.817887 -47.2565 1.09137 -44.4706 1.63289ZM-44.9712 -3.57431C-44.5682 -5.6475 -40.6144 -4.54277 -37.8151 -5.10803L-37.9599 -4.36298C-38.4385 -1.90106 -40.7635 -1.0083 -43.0311 -1.44907C-44.3268 -1.70093 -45.1916 -2.44053 -44.9712 -3.57431ZM-24.1941 -11.5708L-28.0814 -12.3264L-31.2297 3.87048L-27.3425 4.62608L-25.6865 -3.89346L-20.3778 5.97987L-15.5188 6.92437L-21.3475 -3.38624L-12.7916 -9.35433L-17.9098 -10.3492L-25.5668 -4.50894L-24.1941 -11.5708ZM-7.08757 8.56324L-4.63186 -4.0703L0.227193 -3.1258L0.91983 -6.68911L-12.6855 -9.33372L-13.3782 -5.77041L-8.5191 -4.82591L-10.9748 7.80763L-7.08757 8.56324ZM15.5943 12.9722L18.7427 -3.22469L13.7541 -4.19438L5.04993 6.6867L7.40489 -5.42854L3.67962 -6.15266L0.531272 10.0442L5.5199 11.0139L14.2177 0.165184L11.8691 12.248L15.5943 12.9722ZM27.1802 -1.5846L23.293 -2.3402L20.1446 13.8566L24.0319 14.6122L25.6879 6.0927L30.9965 15.966L35.8556 16.9105L30.0268 6.59993L38.5828 0.631836L33.4646 -0.363042L25.8076 5.47722L27.1802 -1.5846ZM53.5241 20.3449L56.6724 4.1481L51.6838 3.17841L42.9797 14.0595L45.3346 1.94425L41.6093 1.22013L38.461 17.417L43.4496 18.3867L52.1475 7.53798L49.7988 19.6208L53.5241 20.3449Z" fill="white"/>
</g>
</g>
<defs>
<filter id="filter0_f_0_1" x="-242.523" y="-99.8735" width="354.256" height="149.435" filterUnits="userSpaceOnUse" color-interpolation-filters="sRGB">
<feFlood flood-opacity="0" result="BackgroundImageFix"/>
<feBlend mode="normal" in="SourceGraphic" in2="BackgroundImageFix" result="shape"/>
<feGaussianBlur stdDeviation="5" result="effect1_foregroundBlur_0_1"/>
</filter>
<filter id="filter1_f_0_1" x="-213.704" y="-86.2961" width="297.773" height="121.943" filterUnits="userSpaceOnUse" color-interpolation-filters="sRGB">
<feFlood flood-opacity="0" result="BackgroundImageFix"/>
<feBlend mode="normal" in="SourceGraphic" in2="BackgroundImageFix" result="shape"/>
<feGaussianBlur stdDeviation="2" result="effect1_foregroundBlur_0_1"/>
</filter>
</defs>
</svg>