<svg width="257" height="26" viewBox="0 0 257 26" fill="none" xmlns="http://www.w3.org/2000/svg">
<path d="M0.221025 19.0669C0.870994 19.6788 2.51302 20.3432 4.54845 20.3432C7.31937 20.3432 8.87587 19.2767 8.87587 17.5983C8.87587 15.9548 7.69566 15.273 5.45498 14.9757L3.62481 14.731C2.78669 14.6086 2.32487 14.3988 2.32487 14.0316C2.32487 13.5421 3.09457 13.2449 4.66818 13.2449C5.57471 13.2449 6.34441 13.4022 6.65229 13.5071V13.7694C6.65229 14.2589 6.82334 14.4337 7.30226 14.4337H7.8325C8.31142 14.4337 8.48247 14.2589 8.48247 13.7694V12.9826C8.48247 12.3707 8.37984 12.1259 7.64435 11.8287C6.97728 11.5665 5.95101 11.3217 4.3603 11.3217C1.50386 11.3217 0.272339 12.5455 0.272339 14.0841C0.272339 15.5177 1.40123 16.3394 3.64191 16.6367L5.5063 16.8814C6.32731 16.9863 6.82334 17.1262 6.82334 17.6157C6.82334 18.0528 6.22468 18.42 4.82212 18.42C3.18009 18.42 1.94857 18.0004 1.19598 17.4409C0.802576 17.1437 0.494697 17.2486 0.323652 17.6507L0.0670855 18.2451C-0.0526456 18.5424 -0.0184366 18.8396 0.221025 19.0669Z" fill="white"/>
<path d="M20.8025 19.3641L18.7158 16.252C18.596 16.0772 18.3053 15.78 18.1 15.6051C18.3053 15.3953 18.5105 15.1331 18.6815 14.8883L20.3407 12.3183C20.6315 11.8812 20.5288 11.4616 20.0157 11.4616H19.075C18.6131 11.4616 18.4592 11.5315 18.2197 11.8986L16.7316 14.2414C16.4751 14.6086 16.2869 14.696 15.7567 14.696H14.166V9.60832C14.166 9.11878 13.9949 8.94395 13.516 8.94395H11.549C11.0701 8.94395 10.899 9.11878 10.899 9.60832V10.1853C10.899 10.6748 11.0701 10.8496 11.549 10.8496H12.1819V19.5389C12.1819 20.0285 12.3529 20.2033 12.8318 20.2033H13.516C13.9949 20.2033 14.166 20.0285 14.166 19.5389V16.6541H15.9448C16.4751 16.6541 16.6632 16.7416 16.9198 17.1087L18.6987 19.7837C18.921 20.1334 19.075 20.2033 19.5368 20.2033H20.4775C20.9906 20.2033 21.0933 19.7837 20.8025 19.3641Z" fill="white"/>
<path d="M24.8898 22.4761H25.8648C27.1989 22.4761 27.7976 21.9167 28.3107 20.9201L32.775 12.2658C33.0145 11.8112 32.8263 11.4616 32.3132 11.4616H31.4237C30.9619 11.4616 30.7396 11.549 30.5856 11.8812L28.9094 15.3953C28.5331 16.1646 28.1397 17.0388 27.7976 17.8081C27.4555 17.0213 27.0279 16.1122 26.6516 15.3254L25.0096 11.8812C24.8385 11.549 24.6333 11.4616 24.1715 11.4616H23.282C22.7689 11.4616 22.5807 11.8112 22.8202 12.2658L26.7371 19.8361L26.6345 20.0634C26.4464 20.4655 26.2069 20.5704 25.7109 20.5704H24.8898C24.4109 20.5704 24.2399 20.7453 24.2399 21.2348V21.8118C24.2399 22.3013 24.4109 22.4761 24.8898 22.4761Z" fill="white"/>
<path d="M34.7263 19.0669C35.3762 19.6788 37.0183 20.3432 39.0537 20.3432C41.8246 20.3432 43.3811 19.2767 43.3811 17.5983C43.3811 15.9548 42.2009 15.273 39.9602 14.9757L38.13 14.731C37.2919 14.6086 36.8301 14.3988 36.8301 14.0316C36.8301 13.5421 37.5998 13.2449 39.1734 13.2449C40.0799 13.2449 40.8496 13.4022 41.1575 13.5071V13.7694C41.1575 14.2589 41.3286 14.4337 41.8075 14.4337H42.3377C42.8167 14.4337 42.9877 14.2589 42.9877 13.7694V12.9826C42.9877 12.3707 42.8851 12.1259 42.1496 11.8287C41.4825 11.5665 40.4562 11.3217 38.8655 11.3217C36.0091 11.3217 34.7776 12.5455 34.7776 14.0841C34.7776 15.5177 35.9065 16.3394 38.1472 16.6367L40.0115 16.8814C40.8326 16.9863 41.3286 17.1262 41.3286 17.6157C41.3286 18.0528 40.7299 18.42 39.3274 18.42C37.6853 18.42 36.4538 18.0004 35.7012 17.4409C35.3078 17.1437 34.9999 17.2486 34.8289 17.6507L34.5723 18.2451C34.4526 18.5424 34.4868 18.8396 34.7263 19.0669Z" fill="white"/>
<path d="M55.3077 19.3641L53.221 16.252C53.1013 16.0772 52.8105 15.78 52.6052 15.6051C52.8105 15.3953 53.0157 15.1331 53.1868 14.8883L54.8459 12.3183C55.1367 11.8812 55.0341 11.4616 54.5209 11.4616H53.5802C53.1184 11.4616 52.9644 11.5315 52.725 11.8986L51.2369 14.2414C50.9803 14.6086 50.7922 14.696 50.2619 14.696H48.6712V9.60832C48.6712 9.11878 48.5002 8.94395 48.0212 8.94395H46.0542C45.5753 8.94395 45.4043 9.11878 45.4043 9.60832V10.1853C45.4043 10.6748 45.5753 10.8496 46.0542 10.8496H46.6871V19.5389C46.6871 20.0285 46.8581 20.2033 47.3371 20.2033H48.0212C48.5002 20.2033 48.6712 20.0285 48.6712 19.5389V16.6541H50.4501C50.9803 16.6541 51.1685 16.7416 51.425 17.1087L53.2039 19.7837C53.4262 20.1334 53.5802 20.2033 54.042 20.2033H54.9828C55.4959 20.2033 55.5985 19.7837 55.3077 19.3641Z" fill="white"/>
<path d="M59.8569 10.465C59.0188 10.465 58.403 9.88805 58.403 9.11878C58.403 8.36699 59.0188 7.79004 59.8569 7.79004C60.6608 7.79004 61.2766 8.36699 61.2766 9.11878C61.2766 9.88805 60.6608 10.465 59.8569 10.465ZM59.6174 20.2033H60.3016C60.7805 20.2033 60.9516 20.0285 60.9516 19.5389V12.1259C60.9516 11.6364 60.7805 11.4616 60.3016 11.4616H58.3346C57.8557 11.4616 57.6846 11.6364 57.6846 12.1259V12.7029C57.6846 13.1924 57.8557 13.3673 58.3346 13.3673H58.9675V19.5389C58.9675 20.0285 59.1385 20.2033 59.6174 20.2033Z" fill="white"/>
<path d="M66.3578 8.94395H64.3908C63.9119 8.94395 63.7409 9.11878 63.7409 9.60832V10.1853C63.7409 10.6748 63.9119 10.8496 64.3908 10.8496H65.0237V19.5389C65.0237 20.0285 65.1947 20.2033 65.6737 20.2033H66.3578C66.8368 20.2033 67.0078 20.0285 67.0078 19.5389V9.60832C67.0078 9.11878 66.8368 8.94395 66.3578 8.94395Z" fill="white"/>
<path d="M71.809 8.94395H69.842C69.3631 8.94395 69.192 9.11878 69.192 9.60832V10.1853C69.192 10.6748 69.3631 10.8496 69.842 10.8496H70.4748V19.5389C70.4748 20.0285 70.6459 20.2033 71.1248 20.2033H71.809C72.2879 20.2033 72.459 20.0285 72.459 19.5389V9.60832C72.459 9.11878 72.2879 8.94395 71.809 8.94395Z" fill="white"/>
<path d="M75.0559 19.0669C75.7058 19.6788 77.3479 20.3432 79.3833 20.3432C82.1542 20.3432 83.7107 19.2767 83.7107 17.5983C83.7107 15.9548 82.5305 15.273 80.2898 14.9757L78.4597 14.731C77.6215 14.6086 77.1597 14.3988 77.1597 14.0316C77.1597 13.5421 77.9294 13.2449 79.503 13.2449C80.4096 13.2449 81.1793 13.4022 81.4872 13.5071V13.7694C81.4872 14.2589 81.6582 14.4337 82.1371 14.4337H82.6674C83.1463 14.4337 83.3173 14.2589 83.3173 13.7694V12.9826C83.3173 12.3707 83.2147 12.1259 82.4792 11.8287C81.8121 11.5665 80.7859 11.3217 79.1951 11.3217C76.3387 11.3217 75.1072 12.5455 75.1072 14.0841C75.1072 15.5177 76.2361 16.3394 78.4768 16.6367L80.3412 16.8814C81.1622 16.9863 81.6582 17.1262 81.6582 17.6157C81.6582 18.0528 81.0595 18.42 79.657 18.42C78.0149 18.42 76.7834 18.0004 76.0308 17.4409C75.6374 17.1437 75.3296 17.2486 75.1585 17.6507L74.9019 18.2451C74.7822 18.5424 74.8164 18.8396 75.0559 19.0669Z" fill="white"/>
<path d="M122.068 22.2606C120.571 23.1152 119.496 22.403 119.496 21.1362C119.496 19.7877 119.496 15.7413 119.496 15.7413C119.496 15.7413 119.496 11.695 119.496 10.3465C119.496 9.07967 120.571 8.36747 122.068 9.22211C124.399 10.5529 131.391 14.5464 131.391 14.5464C132.321 15.0773 132.321 16.4047 131.391 16.9356C131.391 16.9363 124.399 20.9298 122.068 22.2606Z" fill="#00C1FF"/>
<path d="M129.763 22.2596C128.267 23.1142 127.192 22.402 127.192 21.1353C127.192 19.7867 127.192 15.7404 127.192 15.7404C127.192 15.7404 127.192 11.694 127.192 10.3455C127.192 9.07869 128.266 8.3665 129.763 9.22113C132.043 10.5229 138.882 14.4287 138.882 14.4287C139.903 15.0117 139.903 16.469 138.882 17.052C138.881 17.052 132.043 20.9579 129.763 22.2596Z" fill="#6FE4FF"/>
<mask id="mask0_1_4311" style="mask-type:alpha" maskUnits="userSpaceOnUse" x="127" y="8" width="13" height="15">
<path d="M129.763 22.2596C128.267 23.1142 127.191 22.402 127.191 21.1353C127.191 19.7867 127.191 15.7404 127.191 15.7404C127.191 15.7404 127.191 11.694 127.191 10.3455C127.191 9.07869 128.266 8.3665 129.763 9.22113C132.043 10.5229 138.881 14.4287 138.881 14.4287C139.902 15.0117 139.902 16.469 138.881 17.052C138.881 17.052 132.043 20.9579 129.763 22.2596Z" fill="#6FE4FF"/>
</mask>
<g mask="url(#mask0_1_4311)">
<g filter="url(#filter0_f_1_4311)">
<path d="M122.068 22.2606C120.571 23.1152 119.496 22.403 119.496 21.1362C119.496 19.7877 119.496 15.7413 119.496 15.7413C119.496 15.7413 119.496 11.695 119.496 10.3465C119.496 9.07967 120.571 8.36747 122.068 9.22211C124.399 10.5529 131.391 14.5464 131.391 14.5464C132.321 15.0773 132.321 16.4047 131.391 16.9356C131.391 16.9363 124.399 20.9298 122.068 22.2606Z" fill="#009EE4"/>
</g>
</g>
<path d="M144.608 18.1425L144.873 17.5483C145.05 17.1467 145.368 17.0419 145.774 17.3386C146.552 17.8978 147.824 18.3172 149.52 18.3172C150.97 18.3172 151.588 17.9506 151.588 17.5134C151.588 17.0241 151.076 16.8843 150.227 16.7794L148.301 16.5354C145.986 16.2387 144.82 15.417 144.82 13.9847C144.82 12.4475 146.092 11.2243 149.043 11.2243C150.686 11.2243 151.746 11.4689 152.435 11.7307C153.195 12.0275 153.301 12.2721 153.301 12.8841V13.6701C153.301 14.1595 153.124 14.3342 152.629 14.3342H152.082C151.587 14.3342 151.41 14.1595 151.41 13.6701V13.4077C151.092 13.3028 150.297 13.1459 149.361 13.1459C147.736 13.1459 146.94 13.4426 146.94 13.9319C146.94 14.2986 147.417 14.5083 148.282 14.631L150.173 14.8756C152.488 15.1724 153.707 15.8542 153.707 17.4962C153.707 19.1732 152.099 20.2395 149.237 20.2395C147.134 20.2395 145.438 19.5754 144.766 18.9641C144.52 18.7366 144.484 18.4392 144.608 18.1425Z" fill="white"/>
<path d="M165.463 20.099H164.491C164.014 20.099 163.855 20.0291 163.625 19.6796L161.788 17.0063C161.523 16.6396 161.328 16.5519 160.781 16.5519H158.943V19.435C158.943 19.9243 158.767 20.099 158.272 20.099H157.565C157.07 20.099 156.893 19.9243 156.893 19.435V10.7521H156.24C155.745 10.7521 155.568 10.5774 155.568 10.0881V9.51171C155.568 9.02241 155.745 8.84766 156.24 8.84766H158.272C158.767 8.84766 158.943 9.02241 158.943 9.51171V14.596H160.587C161.134 14.596 161.329 14.509 161.594 14.1416L163.131 11.8006C163.378 11.434 163.537 11.3641 164.015 11.3641H164.986C165.517 11.3641 165.623 11.7835 165.322 12.22L163.608 14.7886C163.431 15.0332 163.219 15.295 163.007 15.5047C163.219 15.6795 163.519 15.9762 163.643 16.151L165.799 19.2609C166.099 19.6803 165.993 20.099 165.463 20.099Z" fill="white"/>
<path d="M168.808 21.7068V21.1304C168.808 20.6411 168.985 20.4663 169.48 20.4663H170.328C170.84 20.4663 171.088 20.3615 171.282 19.9599L171.388 19.7331L167.342 12.1679C167.095 11.7136 167.289 11.3641 167.819 11.3641H168.738C169.215 11.3641 169.427 11.4511 169.604 11.7835L171.3 15.2251C171.688 16.0112 172.13 16.9199 172.483 17.7059C172.837 16.937 173.243 16.0639 173.632 15.295L175.363 11.7835C175.522 11.4518 175.752 11.3641 176.229 11.3641H177.148C177.678 11.3641 177.872 11.7136 177.625 12.1679L173.013 20.8165C172.483 21.8123 171.865 22.3715 170.486 22.3715H169.479C168.985 22.3708 168.808 22.1961 168.808 21.7068Z" fill="white"/>
<path d="M188.917 15.6966V15.9063C188.917 16.3956 188.741 16.5704 188.246 16.5704H181.001C181.248 17.4962 182.185 18.3871 184.181 18.3871C185.966 18.3871 186.779 17.8108 187.15 17.5483C187.556 17.2516 187.839 17.3558 188.051 17.758L188.351 18.3344C188.51 18.6311 188.422 18.8586 188.156 19.0855C187.768 19.4172 186.442 20.2388 184.181 20.2388C181.142 20.2388 179.021 18.4742 179.021 15.7138C179.021 13.0054 181.054 11.2236 183.969 11.2236C186.885 11.2236 188.917 12.9883 188.917 15.6966ZM181.001 14.8756H186.956C186.726 13.9669 185.789 13.1109 183.969 13.1109C182.149 13.1109 181.23 13.9669 181.001 14.8756Z" fill="white"/>
<path d="M201.802 15.3992V19.435C201.802 19.9243 201.626 20.099 201.131 20.099H200.424C199.929 20.099 199.752 19.9243 199.752 19.435V15.4513C199.752 14.0361 198.904 13.2672 197.473 13.2672C196.36 13.2672 195.034 13.9484 194.38 14.6646V19.4343C194.38 19.9236 194.203 20.0984 193.709 20.0984H193.002C192.507 20.0984 192.33 19.9236 192.33 19.4343V13.2672H191.676C191.182 13.2672 191.005 13.0925 191.005 12.6032V12.0268C191.005 11.5375 191.182 11.3628 191.676 11.3628H193.39C193.885 11.3628 194.062 11.5375 194.062 12.0268V12.5161C195.016 11.7472 196.306 11.223 197.702 11.223C200.353 11.2236 201.802 12.7786 201.802 15.3992Z" fill="white"/>
<path d="M214.003 12.0275V20.2046C214.003 22.0213 212.024 23.2096 209.497 23.2096C207.111 23.2096 205.981 22.5106 205.468 22.0391C205.221 21.8123 205.185 21.5149 205.309 21.2181L205.573 20.624C205.768 20.1874 206.086 20.0997 206.474 20.4143C207.093 20.9036 207.694 21.3052 209.478 21.323C211.068 21.323 211.952 20.7466 211.952 20.0476V19.2088C211.316 19.6104 210.538 19.8729 209.425 19.8729C206.562 19.8729 204.583 18.213 204.583 15.5575C204.583 12.9019 206.562 11.2243 209.425 11.2243C210.661 11.2243 211.474 11.5738 212.023 11.9932C212.164 11.6964 212.447 11.3641 212.8 11.3641H213.33C213.826 11.3634 214.003 11.5382 214.003 12.0275ZM211.953 16.9548V14.1595C211.458 13.5653 210.734 13.1986 209.426 13.1986C207.854 13.1986 206.705 14.0896 206.705 15.5575C206.705 17.0254 207.854 17.8985 209.426 17.8985C210.716 17.8978 211.441 17.5312 211.953 16.9548Z" fill="white"/>
<path d="M98.084 10.82C96.878 10.82 95.834 11.396 95.132 12.35V6.5H93.332V20H95.132V18.65C95.834 19.604 96.878 20.18 98.084 20.18C100.55 20.18 102.404 18.254 102.404 15.5C102.404 12.746 100.55 10.82 98.084 10.82ZM97.868 12.476C99.434 12.476 100.604 13.682 100.604 15.5C100.604 17.318 99.434 18.524 97.868 18.524C96.302 18.524 95.132 17.318 95.132 15.5C95.132 13.682 96.302 12.476 97.868 12.476ZM108.388 21.008L111.934 11H110.134L107.542 18.542L104.932 11H103.132L106.696 20.99C106.12 22.394 105.508 23.06 104.374 23.06C103.942 23.06 103.528 22.97 103.186 22.862V24.446C103.528 24.554 104.032 24.644 104.536 24.644C106.75 24.644 107.632 23.15 108.388 21.008Z" fill="white"/>
<defs>
<filter id="filter0_f_1_4311" x="118.681" y="8.03337" width="14.2226" height="15.4157" filterUnits="userSpaceOnUse" color-interpolation-filters="sRGB">
<feFlood flood-opacity="0" result="BackgroundImageFix"/>
<feBlend mode="normal" in="SourceGraphic" in2="BackgroundImageFix" result="shape"/>
<feGaussianBlur stdDeviation="0.407631" result="effect1_foregroundBlur_1_4311"/>
</filter>
</defs>
</svg>